<?xml version="1.0" encoding="utf-8"?>
<!-- Generator: Adobe Illustrator 26.0.1, SVG Export Plug-In . SVG Version: 6.00 Build 0)  -->
<svg version="1.1" id="Lager_1" xmlns="http://www.w3.org/2000/svg" xmlns:xlink="http://www.w3.org/1999/xlink" x="0px" y="0px"
	 viewBox="0 0 1920 1080" style="enable-background:new 0 0 1920 1080;" xml:space="preserve">
<style type="text/css">
	.st0{fill:#0B0C07;}
	.st1{fill:#FFFFFF;stroke:#000000;stroke-miterlimit:10;}
	.st2{fill:#FFFFFF;stroke:#000000;stroke-width:7;stroke-linecap:square;stroke-miterlimit:10;}
</style>
<g>
	<path class="st0" d="M589.7,565.28l186.5-187.5l28.71,32.34l100.15-164.05l99.08,134.88L1051,355l160.5,140.5
		c-10.32-2.76-37.47-9.67-57-12c-92-11-121.31,26.34-133.5,50.5c-5.52,10.94-9.95,24.22-13.04,39.04
		c-19.1,91.62-111.24,148.27-201.64,124.01C670.76,660.68,539.54,617.11,590,565"/>
	<path d="M849,707.73c-14.64,0-29.39-1.93-43.97-5.85c-112.56-30.2-218.33-63.96-229.98-106.11c-2.83-10.24-0.2-20.4,7.8-30.25
		l-0.22-0.22l4.49-4.51l2.77-2.86l0.04,0.04l186.48-187.48l27.76,31.26L904.68,237.1l100.89,137.34l46.08-25.52l179.3,156.96
		l-20.74-5.55c-8.14-2.18-36.24-9.47-56.3-11.87c-66.21-7.92-108.22,7.71-128.44,47.79c-5.35,10.6-9.59,23.32-12.61,37.81
		c-9.52,45.66-36.62,84.25-76.33,108.68C909.66,699.27,879.59,707.73,849,707.73z M594.25,567.79l-0.66,0.68
		c-8.23,8.49-11.14,16.55-8.9,24.63c10.4,37.62,124.6,72.73,222.93,99.12c42.39,11.38,86.31,4.98,123.67-18
		c37.34-22.97,62.83-59.27,71.78-102.21c3.2-15.35,7.73-28.9,13.47-40.27c9.14-18.11,21.87-31.39,38.91-40.58
		c24.71-13.33,58.24-17.58,99.65-12.63c11.67,1.4,25.88,4.37,37.54,7.09l-142.28-124.55l-47.63,26.38l-97.28-132.42l-99.78,163.45
		l-29.67-33.41L594.25,567.79z"/>
</g>
<path class="st1" d="M586.5,579.5"/>
<polygon class="st2" points="832.5,366.5 895.69,419.89 958.19,318.39 905.06,246.07 "/>
<path class="st2" d="M753.5,186.5"/>
</svg>
